<?xml version="1.0"?>
<svg width="640" height="480" xmlns="http://www.w3.org/2000/svg" xmlns:svg="http://www.w3.org/2000/svg">
 <!-- Created with SVG-edit - http://svg-edit.googlecode.com/ -->
 <g>
  <title>Layer 1</title>
  <ellipse ry="90" rx="117" id="svg_21" cy="165" cx="200" stroke-linecap="null" stroke-linejoin="null" stroke-dasharray="null" stroke-width="5" stroke="#000000" fill="none"/>
  <ellipse ry="106" rx="110" id="svg_23" cy="147" cx="462" stroke-linecap="null" stroke-linejoin="null" stroke-dasharray="null" stroke-width="5" stroke="#000000" fill="none"/>
  <ellipse id="svg_24" cy="-116" cx="-503" stroke-linecap="null" stroke-linejoin="null" stroke-dasharray="null" stroke-width="5" stroke="#000000" fill="none"/>
  <ellipse ry="1" id="svg_26" cy="140" cx="176" stroke-linecap="null" stroke-linejoin="null" stroke-dasharray="null" stroke-width="5" stroke="#000000" fill="#000000"/>
  <ellipse ry="46" rx="52" id="svg_29" cy="164" cx="202" stroke-linecap="null" stroke-linejoin="null" stroke-dasharray="null" stroke-width="5" stroke="#000000" fill="#000000"/>
  <ellipse ry="46" rx="43" id="svg_30" cy="144" cx="460" stroke-linecap="null" stroke-linejoin="null" stroke-dasharray="null" stroke-width="5" stroke="#000000" fill="#000000"/>
  <path d="m310,78c-0.915985,-0.283997 -1.399292,-0.891563 -2.006653,-1.446663c-0.720978,-0.658936 -1.402191,-1.213326 -2.014191,-1.532501c-0.619507,-0.323097 -1.720306,-0.763924 -2.5,-1.041672c-0.620667,-0.2211 -1.815948,-0.829712 -2.189819,-1.037163c-0.791046,-0.438942 -1.560822,-0.918755 -2.622681,-1.442001c-0.744293,-0.36676 -1.587921,-0.635521 -2.333313,-1c-0.68634,-0.335609 -1.488129,-0.807785 -1.9375,-1.0625c-0.971283,-0.550537 -1.482361,-0.84906 -2.5625,-1.4375c-1.115753,-0.607841 -1.69397,-0.902008 -2.279999,-1.199997c-0.593964,-0.30204 -1.813629,-0.902878 -2.440002,-1.200005c-1.277222,-0.605873 -1.933777,-0.901772 -2.597351,-1.198662c-0.667786,-0.29879 -1.340424,-0.592789 -2.015991,-0.880505c-0.673767,-0.286945 -1.341217,-0.579166 -3.333344,-1.354164c-0.643555,-0.250359 -1.283417,-0.484283 -1.918488,-0.714001c-0.632935,-0.228943 -1.268921,-0.452896 -2.558014,-0.905334c-0.659454,-0.231449 -2.023804,-0.713181 -2.733002,-0.968666c-0.726807,-0.261826 -1.466827,-0.531734 -2.218475,-0.804001c-0.759369,-0.27507 -1.523438,-0.550957 -2.290497,-0.821999c-0.764923,-0.27029 -2.280731,-0.788452 -3.026855,-1.031334c-0.736542,-0.239761 -1.468475,-0.469296 -2.195984,-0.695999c-0.725159,-0.225964 -1.45108,-0.449425 -2.178009,-0.678001c-0.73172,-0.23008 -2.214844,-0.711525 -2.969513,-0.968998c-0.769348,-0.262482 -1.553329,-0.539051 -2.356491,-0.825001c-0.825851,-0.294025 -1.675827,-0.600479 -2.554489,-0.915001c-0.909317,-0.325497 -2.83284,-1.006927 -3.851837,-1.359333c-1.047653,-0.362316 -2.115768,-0.725368 -3.195007,-1.083c-1.077438,-0.357033 -2.145416,-0.702682 -3.194992,-1.028999c-1.017136,-0.316231 -2.923615,-0.872173 -3.796005,-1.102833c-0.815735,-0.215679 -1.585846,-0.402309 -2.313004,-0.577499c-0.690842,-0.166443 -1.353165,-0.322071 -1.988998,-0.487503c-0.620178,-0.161358 -1.82962,-0.525112 -2.426666,-0.741833c-0.600388,-0.217937 -1.192657,-0.459518 -1.778992,-0.708c-0.580994,-0.24622 -1.148987,-0.499458 -1.707001,-0.743999c-0.543335,-0.238106 -1.578949,-0.677395 -2.072174,-0.862499c-0.476242,-0.17873 -0.946457,-0.346134 -1.904663,-0.622002c-0.494263,-0.1423 -1.560822,-0.406342 -2.770828,-0.6875c-0.673141,-0.156414 -1.388184,-0.317879 -2.134506,-0.490498c-0.769684,-0.178024 -1.553558,-0.361313 -2.341492,-0.553501c-0.78508,-0.19149 -1.560104,-0.375851 -3.024002,-0.789333c-0.683655,-0.1931 -1.333817,-0.398544 -2.58667,-0.799999c-0.621902,-0.199276 -1.252121,-0.404045 -1.904999,-0.600002c-0.68042,-0.20422 -2.173721,-0.605396 -3.003342,-0.799999c-0.876999,-0.205715 -1.796249,-0.401978 -2.744995,-0.599998c-0.967926,-0.202023 -1.946869,-0.399014 -2.925003,-0.600002c-0.968521,-0.199017 -2.835922,-0.595955 -3.715668,-0.799999c-0.845581,-0.196117 -1.658096,-0.397041 -2.442001,-0.599998c-0.761414,-0.197132 -1.501755,-0.398441 -2.225998,-0.600002c-0.713089,-0.19846 -2.117905,-0.60033 -2.817825,-0.799831c-0.698746,-0.199165 -1.395294,-0.397015 -2.089508,-0.5895c-0.689468,-0.191174 -1.374023,-0.37711 -2.053497,-0.553501c-0.671204,-0.174248 -1.989746,-0.493874 -2.635666,-0.635666c-0.635452,-0.139492 -1.263138,-0.270676 -2.500671,-0.500668c-0.609589,-0.113293 -1.216019,-0.218155 -3.020828,-0.520832c-0.599899,-0.100607 -1.199997,-0.199999 -1.800003,-0.299999c-1.199997,-0.199997 -1.800003,-0.300003 -2.399994,-0.400002c-1.800003,-0.300003 -2.400131,-0.400282 -3.001343,-0.5c-1.209229,-0.200565 -1.819412,-0.30047 -2.434662,-0.4c-0.621094,-0.100475 -2.530518,-0.400999 -3.185165,-0.499832c-0.661346,-0.099844 -1.326599,-0.198568 -1.9935,-0.289501c-1.323227,-0.180424 -1.974731,-0.260599 -2.615997,-0.325333c-1.824921,-0.184223 -2.402542,-0.203709 -2.968506,-0.232666c-1.121429,-0.057375 -1.688004,-0.068687 -2.854156,-0.136667c-1.247299,-0.07271 -1.910233,-0.134851 -2.593338,-0.200001c-0.693573,-0.066149 -1.386963,-0.138777 -2.733337,-0.290667c-0.633469,-0.071465 -1.224945,-0.15753 -2.670334,-0.303833c-0.949982,-0.096159 -1.703995,-0.119249 -2.956329,-0.1215c-0.856674,-0.001539 -1.320007,0 -2.266663,0c-0.906677,0 -2.019333,0 -2.943344,0c-0.904663,0 -1.757996,0 -2.697998,0c-0.88533,0 -1.685333,0 -2.585327,0l-0.900009,0l-0.899994,0l-0.899994,0" id="svg_31" stroke-linecap="null" stroke-linejoin="null" stroke-dasharray="null" stroke-width="5" stroke="#000000" fill="none"/>
  <path d="m355,37c1.020844,-0.520832 1.804871,-1.040985 2.479156,-1.479168c0.790497,-0.513691 1.73822,-0.483517 2.372833,-0.628834c1.33725,-0.306213 1.798431,-0.55302 2.335999,-0.745331c1.191833,-0.42638 1.812927,-0.665104 2.434692,-0.906666c0.609558,-0.236824 2.21347,-0.900665 3.003998,-1.276001c0.715912,-0.339916 1.096375,-0.541056 2.070831,-0.940834c0.625366,-0.256567 2.300934,-0.861088 3.391998,-1.231333c1.264679,-0.429157 2.705933,-0.898996 4.318481,-1.414501c1.778351,-0.568506 3.723175,-1.177361 5.830505,-1.828499c2.264618,-0.699732 7.260132,-2.220093 9.982849,-3.033501c2.8479,-0.850807 5.801361,-1.719662 8.843994,-2.573999c3.097992,-0.869886 6.237579,-1.716286 9.402008,-2.502001c3.150391,-0.782225 9.360626,-2.135721 12.379822,-2.667c2.931885,-0.515913 5.786896,-0.928147 8.551514,-1.263c2.661316,-0.322341 5.222656,-0.552 7.669495,-0.759l2.32782,-0.169001" id="svg_32" stroke-linecap="null" stroke-linejoin="null" stroke-dasharray="null" stroke-width="5" stroke="#000000" fill="none"/>
  <path d="m192,345c0,1 -0.036926,1.800751 0,2.700012c0.033783,0.822571 0.155853,1.223724 0.3125,1.820831c0.221619,0.844727 0.540863,1.981506 0.967499,3.46048c1.208298,4.188721 2.042023,6.97113 2.994675,10.192017c1.065018,3.600769 2.226212,7.525635 3.454498,11.722504c1.290573,4.409729 2.621628,8.978241 3.949493,13.657501c2.678818,9.43985 3.944839,14.106964 5.160004,18.674652c1.176788,4.423431 2.273071,8.672089 3.265503,12.709503c0.927902,3.774902 1.7621,7.25415 2.410492,10.41449c1.053406,5.134521 1.345123,7.064636 1.382675,8.518677c0.024673,0.955505 -0.267044,1.497986 -0.564011,1.29599c-0.686417,-0.466919 -1.222977,-1.877472 -2.003998,-3.743988c-2.313385,-5.528656 -3.516251,-9.348511 -4.951996,-13.689331c-1.582169,-4.783508 -3.193909,-9.931458 -4.794006,-15.337494c-1.637955,-5.533936 -3.228668,-11.107178 -4.613998,-16.642517c-2.599854,-10.388184 -3.473846,-15.122406 -4.177322,-19.47467c-0.642807,-3.976868 -1.076584,-7.618988 -1.354507,-10.9245c-0.250046,-2.973999 -0.367676,-5.639069 -0.4095,-7.999481c-0.068298,-3.854187 -0.028,-5.372833 -0.028,-6.640015c0,-1.035156 0,-1.85733 0,-2.485504c0,-0.453156 0.160156,-0.910492 0,-0.910492c-0.014679,0 -0.003006,0.159821 0.014664,0.41333c0.027359,0.392426 0.094543,0.951935 0.214508,1.705505c0.15625,0.981567 0.385544,2.216614 0.709488,3.730499c0.857391,4.006805 1.490204,6.529663 2.202667,9.390656c0.78772,3.163208 1.669189,6.585815 2.629501,10.233002c1.011322,3.840912 2.082199,7.834961 3.214508,11.943024c2.325806,8.43811 3.548355,12.681976 4.77066,16.894653c1.201492,4.140961 2.390671,8.161072 3.556503,12.01651c1.105255,3.655121 2.149948,7.063293 3.151505,10.171478c1.673126,5.192291 2.361679,7.189484 3,8.757355c0.48732,1.19696 0.845047,2.131775 1.348495,2.40448c0.304977,0.165192 0.710159,-0.217072 0.943497,-0.880493c0.77565,-2.205292 0.907852,-3.864716 1.199997,-5.769318c0.334869,-2.183167 0.629929,-4.645233 0.856506,-7.371002c0.246918,-2.970398 0.43187,-6.183044 0.451508,-9.621002c0.042847,-7.504517 -0.265442,-11.541199 -0.593338,-15.701355c-0.333527,-4.231537 -0.775085,-8.463226 -1.253998,-12.635986c-0.465576,-4.05658 -0.964188,-7.927582 -1.434006,-11.556c-0.812851,-6.27774 -1.139755,-8.816772 -1.38533,-10.959991c-0.203461,-1.775635 -0.351746,-3.218109 -0.451508,-4.359009c-0.076065,-0.869904 -0.119919,-1.502411 -0.13649,-1.928986c-0.014084,-0.362518 -0.009216,-0.35614 -0.014679,-0.230682c-0.011047,0.253571 -0.034149,0.644257 -0.077988,1.180511c-0.056564,0.691833 -0.137726,1.547852 -0.258011,2.5755c-0.306,2.614349 -0.540787,4.206635 -0.79599,5.965332c-0.274216,1.889679 -0.574081,3.873413 -0.883499,5.91748c-0.313232,2.069275 -0.629257,4.127808 -0.928513,6.142517c-0.557343,3.75235 -0.790329,5.42804 -0.991989,6.955994c-0.182251,1.380829 -0.334427,2.618073 -0.454498,3.713989c-0.104614,0.954865 -0.188263,1.771851 -0.229507,2.45401c-0.058151,0.961823 -0.107407,1.294067 0.007996,1.395996c0.054535,0.048157 0.193619,-0.122131 0.346512,-0.412506c0.228745,-0.434418 0.49408,-1.041779 0.841492,-1.807495c0.928696,-2.046967 1.521576,-3.332458 2.189331,-4.772003c0.727234,-1.56778 1.503204,-3.23587 2.302505,-4.983002c0.820801,-1.794159 1.647263,-3.609955 2.4375,-5.432983c1.523727,-3.515137 2.177856,-5.180573 2.782669,-6.750671c0.563354,-1.462494 1.058914,-2.81723 1.509003,-4.045502c0.400543,-1.093079 0.730835,-2.049164 1.05899,-2.830505c0.452896,-1.078339 0.664597,-1.413086 0.817337,-1.365326c0.208954,0.065338 0.275848,0.577484 0.394501,1.237488c0.165268,0.919403 0.31546,2.12561 0.529495,3.622498c0.563599,3.941589 0.949051,6.401947 1.406677,9.14267c0.49559,2.968109 1.049423,6.10141 1.667999,9.33902c0.629196,3.293182 1.282806,6.581512 2.028,9.789001c1.398666,6.020172 2.184967,8.695038 2.987991,11.114655c0.728058,2.193787 1.475601,4.131165 2.296509,5.763c0.711441,1.414215 1.38147,2.638794 2.251495,3.333008c1.281876,1.022827 2.186722,0.839417 2.796005,0.391998c0.740921,-0.544098 1.337036,-1.573761 1.889999,-2.850006c0.659348,-1.52179 1.217209,-3.386169 1.709991,-5.549988c1.177551,-5.170593 1.557571,-8.236572 1.989334,-11.524017c0.45517,-3.465607 0.835693,-7.065399 1.134003,-10.738495c0.299118,-3.683136 0.534531,-7.327332 0.593994,-10.873505c0.110046,-6.56308 -0.107468,-9.483734 -0.389328,-12.12265c-0.253906,-2.377136 -0.607117,-4.480469 -1.037994,-6.295502c-0.370132,-1.559143 -0.739517,-2.859161 -1.218002,-3.820496c-0.60289,-1.211304 -1.02684,-1.374329 -1.181335,-1.166687c-0.299103,0.401947 -0.283707,1.303223 -0.309006,2.507996c-0.033676,1.603638 0.032745,3.632629 0.141006,6.108002c0.279648,6.393768 0.531952,10.335571 0.789337,14.698669c0.276291,4.683624 0.579666,9.586945 0.903,14.610016c0.324646,5.04361 0.652328,10.007324 0.992996,14.789978c0.614563,8.62793 0.91037,12.291534 1.194672,15.497345c0.245987,2.773773 0.478989,5.137054 0.728989,7.10849c0.204285,1.610962 0.358475,2.894928 0.639008,3.823517c0.320007,1.059265 0.64119,1.202972 0.807999,1.03067c0.29985,-0.309723 0.4552,-0.99527 0.677994,-1.875c0.283508,-1.119446 0.554031,-2.498352 0.858002,-4.125c0.746735,-3.996063 1.144409,-6.367523 1.597336,-8.940002c0.481094,-2.732483 0.981323,-5.580505 1.502991,-8.497498c0.526337,-2.942993 1.051788,-5.866943 1.593018,-8.722504c1.012848,-5.343658 1.5112,-7.74176 1.989319,-9.936005c0.434174,-1.992615 0.848633,-3.775208 1.251007,-5.341492c0.348694,-1.357391 0.650421,-2.503693 0.980988,-3.406525c0.430023,-1.174408 0.689362,-1.456818 0.810669,-1.36264c0.26181,0.203247 0.266235,0.911743 0.375,1.852478c0.149414,1.292267 0.280487,2.968597 0.464996,5.047516c0.485809,5.473999 0.813812,8.899872 1.206696,12.718658c0.424744,4.128632 0.899078,8.479004 1.432495,12.963013c0.539764,4.537384 1.097412,9.041199 1.747498,13.412994c1.198029,8.056885 1.879913,11.566345 2.593323,14.687988c0.632233,2.766479 1.287018,5.165405 2.054993,7.149017c0.644623,1.664978 1.239014,3.093567 2.14502,3.819c1.285645,1.029419 2.312012,0.635162 2.989319,-0.009338c0.864502,-0.822632 1.556641,-2.216003 2.199005,-3.955505c0.770477,-2.086456 1.416016,-4.630707 1.928986,-7.600494c1.23996,-7.178802 1.481232,-11.466248 1.797333,-16.066681c0.331696,-4.827393 0.554474,-9.781952 0.732025,-14.749481c0.174103,-4.871246 0.286987,-9.53949 0.371979,-13.894501c0.143158,-7.334412 0.17218,-10.120361 0.209351,-12.300018c0.027435,-1.607666 0.026978,-2.678375 0.064484,-3.242981c0.006378,-0.096008 0.017731,0.244659 0.019501,0.987c0.006073,2.554657 0.000671,4.298004 0.002686,6.301331c0.002228,2.223328 0.007111,4.626648 0.019501,7.169983c0.012878,2.643341 0.029694,5.346771 0.064484,8.070007c0.068329,5.346863 0.131165,7.894806 0.198669,10.330658c0.064056,2.312134 0.138123,4.488129 0.216003,6.516022c0.071747,1.868103 0.145081,3.564087 0.216003,5.075989c0.113708,2.424194 0.153717,3.315155 0.20401,3.988007c0.034393,0.460022 0.075958,0.766815 0.142487,0.748505c0.172699,-0.047516 0.165588,-0.530212 0.277496,-1.096497c0.338623,-1.713684 0.54483,-2.857239 0.800018,-4.164001c0.28302,-1.449219 0.592804,-3.016113 0.922485,-4.677002c0.343628,-1.73114 0.69809,-3.508057 1.057495,-5.307007c0.71286,-3.568085 1.056519,-5.291168 1.391998,-6.950684c0.320251,-1.584167 0.625793,-3.079681 0.925507,-4.471497c0.27536,-1.278809 0.524994,-2.432404 0.790497,-3.436493c0.409973,-1.550537 0.568604,-2.092438 0.802673,-2.373322c0.130859,-0.157013 0.336273,-0.067139 0.448486,0.226501c0.183594,0.480438 0.284485,1.21225 0.403503,2.161499c0.326538,2.60434 0.439484,4.27832 0.608002,6.161316c0.184448,2.061005 0.379272,4.264862 0.613495,6.572998c0.241516,2.379944 0.49762,4.796265 0.838501,7.203003c0.663025,4.68103 1.109833,6.871765 1.600006,8.928009c0.459076,1.925751 0.964874,3.68927 1.561493,5.243988c0.532928,1.388702 1.045319,2.624146 1.786499,3.444c1.110748,1.228638 1.970764,1.269867 2.598663,0.980011c0.749207,-0.345856 1.427948,-1.179321 2.094025,-2.236511c0.795929,-1.263275 1.538666,-2.852142 2.273987,-4.711487c1.753479,-4.433777 2.528259,-7.092194 3.384003,-9.941345c0.904968,-3.01297 1.774475,-6.170929 2.59201,-9.430481c0.828156,-3.30188 1.603882,-6.619934 2.231995,-9.925507c1.202209,-6.326996 1.534943,-9.314667 1.79599,-12.129333c0.244293,-2.634033 0.369568,-5.087372 0.409515,-7.341003c0.036194,-2.042725 0.007629,-3.865417 -0.08551,-5.450989c-0.142548,-2.42691 -0.236023,-3.249725 -0.385345,-3.777344c-0.075653,-0.267273 -0.223022,-0.239716 -0.299988,0.082489c-0.143799,0.602051 -0.213806,1.520599 -0.299988,2.737518c-0.23822,3.364166 -0.304688,5.52063 -0.400024,7.959991c-0.105103,2.688995 -0.20224,5.593262 -0.299988,8.67749c-0.102356,3.229126 -0.200623,6.568298 -0.299988,9.982513c-0.201233,6.9133 -0.302032,10.34259 -0.394684,13.708008c-0.089935,3.267273 -0.171234,6.402496 -0.221985,9.371979c-0.047333,2.769226 -0.08786,5.305115 -0.042023,7.572021c0.072723,3.5961 0.150116,4.883453 0.416016,5.754669c0.166779,0.546417 0.562836,0.745605 0.876007,0.464996c0.545776,-0.489014 1.000793,-1.526215 1.595978,-2.865021c1.655334,-3.72348 2.543243,-6.181152 3.573334,-8.941315c1.13031,-3.028656 2.289063,-6.299347 3.414001,-9.777008c1.166962,-3.607605 2.303619,-7.320648 3.234009,-11.127014c1.843903,-7.543732 2.361206,-11.284363 2.785339,-14.901306c0.40741,-3.474152 0.633179,-6.798523 0.751495,-9.930023c0.109894,-2.908966 0.117554,-5.570251 0.076508,-7.949982c-0.065552,-3.80069 -0.13678,-5.165924 -0.179993,-6.165344c-0.027588,-0.637848 -0.068878,-0.920044 -0.084015,-0.842987c-0.08194,0.417084 -0.054138,1.194641 -0.084015,2.306976c-0.086884,3.234558 -0.13797,5.340973 -0.198639,7.725342c-0.066406,2.610321 -0.135193,5.394623 -0.196503,8.300995c-0.062775,2.976288 -0.121765,5.970551 -0.15152,8.931c-0.056366,5.610535 -0.04248,8.163971 0.009338,10.514679c0.047119,2.13739 0.122711,4.051056 0.287994,5.721008c0.141174,1.426239 0.230469,2.645508 0.64801,3.470978c0.512024,1.012299 1.163361,0.964752 1.600006,0.588013c0.618622,-0.533722 1.159821,-1.513458 1.751984,-2.74649c0.714874,-1.488495 1.41626,-3.296814 2.112,-5.40152c1.654205,-5.004181 2.389069,-7.9599 3.169342,-11.12265c0.818787,-3.318817 1.579346,-6.759552 2.239502,-10.267517c0.658478,-3.499115 1.243713,-6.951355 1.564514,-10.3125c0.58725,-6.152618 0.463531,-8.887421 0.206665,-11.315979c-0.228271,-2.158356 -0.617157,-4.031464 -1.167023,-5.559021c-0.456696,-1.268677 -0.906464,-2.37381 -1.617004,-2.768982c-0.896332,-0.498505 -1.48999,0.206146 -1.773315,0.992004c-0.379272,1.052002 -0.551086,2.466156 -0.692993,4.151978c-0.164978,1.959778 -0.231781,4.191071 -0.243011,6.671997c-0.025635,5.661407 0.088776,8.806976 0.190674,12.104004c0.104828,3.391693 0.242462,6.819122 0.406494,10.223999c0.160217,3.325806 0.331635,6.513977 0.541504,9.503998c0.362549,5.165161 0.565521,7.23407 0.802673,8.941345c0.190704,1.373047 0.360992,2.446106 0.697479,3.138c0.222443,0.457397 0.628448,0.654297 0.922516,0.437988c1.048401,-0.771149 1.302765,-1.873505 1.794647,-2.962646c0.57312,-1.268982 1.137238,-2.741943 1.699524,-4.391998c0.611664,-1.794952 1.209595,-3.741638 1.744476,-5.832001c1.14682,-4.481903 1.56839,-6.887115 1.989349,-9.335999c0.423523,-2.463928 0.781555,-4.921021 1.099487,-7.332001c0.306976,-2.32782 0.565247,-4.543701 0.784515,-6.612c0.376648,-3.553101 0.497894,-4.980255 0.605316,-6.160004c0.085358,-0.937592 0.140747,-1.638092 0.193512,-2.102997c0.026794,-0.236145 0.053375,-0.245483 0.058502,-0.03302c0.026001,1.074371 0.003998,1.92868 0.003998,2.986664c0,1.256012 0,2.70401 0,4.338013c0,1.813995 0,3.802002 0,5.958008c0,4.791992 -0.000793,7.409332 0.001343,10.130646c0.002167,2.779358 0.006622,5.570679 0.019501,8.328003c0.012512,2.677338 0.02655,5.22879 0.064484,7.608002c0.064697,4.05899 0.111267,5.656586 0.210663,6.947998c0.076904,0.998932 0.11084,1.770325 0.39151,2.1315c0.159363,0.205078 0.512421,0.063751 0.796509,-0.343475c0.991577,-1.421356 1.400909,-2.622192 1.994659,-3.970673c0.680634,-1.545807 1.393066,-3.293976 2.125488,-5.227509c0.790222,-2.086121 1.592102,-4.324677 2.350525,-6.712494c1.61319,-5.078949 2.296295,-7.78479 2.985321,-10.53067c0.69104,-2.753876 1.324036,-5.493744 1.934998,-8.173492c0.588898,-2.582947 1.123291,-5.039581 1.665009,-7.318512c0.931274,-3.917603 1.351379,-5.48468 1.807983,-6.73999c0.359344,-0.987976 0.680145,-1.786377 1.152008,-2.003998c0.343231,-0.158295 0.824951,0.213196 1.152008,0.875977c1.080902,2.19043 1.334808,3.960968 1.801331,5.976013c0.535217,2.311768 1.050385,4.914185 1.567505,7.77301c0.557556,3.082397 1.101654,6.371826 1.612488,9.842987c1.082855,7.358215 1.533783,11.205414 1.992004,15.096008c0.457458,3.884094 0.874725,7.714233 1.270508,11.436005c0.378693,3.560913 0.717957,6.911255 1.045502,9.996002c0.549103,5.171661 0.777008,7.16687 1.003998,8.761322c0.174377,1.224792 0.285858,2.120422 0.513,2.638489c0.112335,0.256195 0.317719,0.208435 0.423004,-0.106476c0.418762,-1.25238 0.444,-2.232758 0.612,-3.360016c0.194092,-1.302338 0.401459,-2.775452 0.652496,-4.408508c0.275116,-1.789703 0.582825,-3.729065 0.967499,-5.803497c0.845337,-4.558502 1.40094,-7.008118 1.994659,-9.544006c0.606995,-2.59259 1.261963,-5.197052 1.954498,-7.777496c0.679749,-2.532867 1.364899,-4.976959 2.089508,-7.282501c1.297852,-4.129425 1.95694,-5.859985 2.585327,-7.36264c0.546448,-1.306702 1.069427,-2.4039 1.596008,-3.271515c0.42923,-0.707214 0.798523,-1.296661 1.235992,-1.51651c0.546082,-0.274445 0.863342,0.034241 0.998657,0.401337c0.187042,0.507355 0.230957,1.2341 0.244507,2.136017c0.016541,1.101227 -0.047028,2.411804 -0.160492,3.936005c-0.277954,3.733917 -0.529663,5.946289 -0.797333,8.367981c-0.287354,2.599731 -0.618927,5.342896 -1.000519,8.196014c-0.392731,2.93631 -0.817139,5.921631 -1.315491,8.915985c-0.986298,5.92627 -1.586304,8.777466 -2.182678,11.532013c-0.572235,2.643066 -1.161896,5.144135 -1.730988,7.489502c-0.527313,2.173187 -1.033752,4.147278 -1.460999,5.91449c-0.679565,2.810944 -0.915314,3.824097 -0.977325,4.573334c-0.03894,0.470306 0.110382,0.717316 0.29248,0.59549c0.394714,-0.264069 0.777863,-0.9664 1.327515,-1.879486c1.573425,-2.613739 2.498047,-4.37677 3.597321,-6.376007c1.230713,-2.238251 2.573303,-4.70343 4.033508,-7.369507c1.562378,-2.852631 3.217957,-5.873962 4.978485,-9.034485c3.734283,-6.703827 5.722839,-10.187347 7.76001,-13.714661c2.043182,-3.53772 4.091736,-7.028198 6.136505,-10.417511c1.973053,-3.270447 3.867218,-6.36908 5.731506,-9.202515c3.225647,-4.902496 4.658447,-6.82373 5.977325,-8.341309c1.07782,-1.240204 2.025238,-2.198639 2.937012,-2.53952c0.677887,-0.253448 1.426575,-0.001038 1.766998,0.655518c1.050049,2.025146 0.801575,3.818237 0.814667,5.761322c0.015045,2.236542 -0.125793,4.740814 -0.352509,7.479004c-0.244476,2.952942 -0.587708,6.086639 -1.027496,9.368988c-0.928741,6.931641 -1.552795,10.502472 -2.175995,14.102692c-0.620544,3.584808 -1.271484,7.101349 -1.921509,10.507477c-0.620972,3.253815 -1.225616,6.30542 -1.786499,9.112518c-0.93924,4.700653 -1.319977,6.506561 -1.569336,7.940002c-0.182251,1.047668 -0.430481,1.878052 -0.165009,2.009979c0.189636,0.094238 0.541534,-0.549957 1.005005,-1.410004c1.513428,-2.808441 2.44635,-4.820313 3.580017,-7.150665c1.2789,-2.628876 2.660522,-5.52829 4.102478,-8.668488c1.525513,-3.322144 3.088379,-6.800171 4.597504,-10.423492c3.082001,-7.39975 4.444702,-11.171356 5.764008,-14.902679c1.291595,-3.652954 2.473145,-7.220184 3.575989,-10.652985c1.045868,-3.255432 1.984955,-6.312744 2.856018,-9.123016c1.473297,-4.753235 2.05896,-6.636749 2.609314,-8.160004c0.434021,-1.201233 0.75061,-2.127563 1.180511,-2.59198c0.24646,-0.266235 0.605133,-0.14563 0.775513,0.287994c0.643982,1.638885 0.621063,3.002136 0.82132,4.56134c0.231293,1.800995 0.459137,3.82608 0.736511,6.046478c0.299438,2.397034 0.624023,4.949005 1.051483,7.621521c0.905273,5.659943 1.524231,8.579712 2.201355,11.519989c0.676971,2.939667 1.427612,5.825409 2.267975,8.60849c0.809143,2.679626 1.634552,5.211975 2.628021,7.483521c1.722839,3.939301 2.735138,5.448914 3.802643,6.552002c0.925659,0.956512 2.008362,1.600403 3.111023,1.714478c1.121033,0.115997 2.381683,-0.26178 3.561005,-1.030487c2.936981,-1.914368 4.264069,-3.70694 5.77597,-5.552002c1.639954,-2.001343 3.239075,-4.246155 4.788025,-6.667511c1.594086,-2.491913 3.115021,-5.088165 4.427979,-7.79248c2.563232,-5.279541 3.426941,-7.958374 4.184021,-10.526672c0.721313,-2.44693 1.247742,-4.806519 1.638,-7.035004c0.361786,-2.065918 0.597992,-3.970673 0.737976,-5.684998c0.226166,-2.769867 0.226776,-3.79776 0.225342,-4.569336c-0.000946,-0.515594 -0.043213,-0.791168 -0.067505,-0.76651c-0.191742,0.194763 -0.089874,0.808624 -0.112488,1.6185c-0.068237,2.443268 -0.031586,4.077667 0.007996,5.951996c0.043854,2.076721 0.119019,4.316467 0.229492,6.679504c0.114502,2.449036 0.252197,4.944855 0.454498,7.444519c0.394318,4.872009 0.684845,7.163879 0.996002,9.332001c0.292755,2.039886 0.619476,3.932739 0.987,5.66098c0.333374,1.567627 0.660095,2.962067 1.076996,4.131012c0.633118,1.775238 0.991608,2.382599 1.400024,2.575989c0.309326,0.146484 0.721832,-0.104828 1.02298,-0.582001c0.421906,-0.668518 0.758667,-1.668091 1.113007,-2.921997c0.933777,-3.304291 1.331726,-5.411621 1.776001,-7.755981c0.482574,-2.546509 0.918671,-5.270782 1.235992,-8.134521c0.326752,-2.948822 0.577118,-5.963104 0.516022,-8.989502c-0.12027,-5.957031 -0.7099,-8.813354 -1.389343,-11.521332c-0.654083,-2.606903 -1.504639,-5.036316 -2.459991,-7.259979c-0.889038,-2.069336 -1.822815,-3.914703 -2.820007,-5.460022c-1.57663,-2.443207 -2.305969,-3.236389 -2.972015,-3.573334c-0.468781,-0.237152 -0.994385,-0.046326 -1.270477,0.450012c-0.389404,0.700073 -0.548676,1.795135 -0.685516,3.149994c-0.362671,3.590546 -0.350372,5.842285 -0.418671,8.339996c-0.074005,2.707306 -0.124969,5.580048 -0.1875,8.57251c-0.064117,3.067535 -0.123108,6.165619 -0.232483,9.247498c-0.210876,5.941376 -0.396393,8.714203 -0.596008,11.325348c-0.186646,2.441193 -0.399719,4.697876 -0.609009,6.760498c-0.188599,1.858673 -0.380432,3.499207 -0.518982,4.915497c-0.205811,2.10376 -0.29187,2.785309 -0.196014,3.175995c0.033569,0.13681 0.16983,-0.021027 0.277496,-0.466492c0.176453,-0.730133 0.337555,-1.771851 0.502502,-3.121521c0.445313,-3.643341 0.609589,-5.953735 0.777344,-8.534668c0.181763,-2.796448 0.318146,-5.756714 0.365997,-8.822998c0.048645,-3.115326 0.048828,-6.230347 -0.174011,-9.27298c-0.417389,-5.699158 -0.964203,-8.238586 -1.589325,-10.53067c-0.57428,-2.105682 -1.281128,-3.981567 -2.070007,-5.613007c-0.710327,-1.468994 -1.455353,-2.729034 -2.25,-3.722992c-1.246399,-1.55899 -1.854156,-2.04599 -2.38266,-2.180023c-0.409454,-0.103851 -0.844757,0.184845 -1.096497,0.715515c-0.354553,0.747345 -0.53241,1.86554 -0.691498,3.280487c-0.433441,3.855072 -0.481262,6.345551 -0.615997,9.149353c-0.147491,3.069183 -0.281494,6.348236 -0.442505,9.778503c-0.165497,3.525726 -0.33255,7.090881 -0.577515,10.633484c-0.470734,6.808105 -0.820618,9.960663 -1.194641,12.91333c-0.348694,2.752655 -0.737915,5.288452 -1.144501,7.598999c-0.367188,2.086609 -0.733734,3.933655 -1.099518,5.529022c-0.558594,2.436249 -0.769287,3.261505 -0.997314,3.789307c-0.123718,0.286346 -0.291931,0.288208 -0.361511,0.015015c-0.133514,-0.524384 -0.159637,-1.339661 -0.226501,-2.415009c-0.18399,-2.959106 -0.272552,-4.840149 -0.415985,-6.957336c-0.157471,-2.324249 -0.350067,-4.822876 -0.607513,-7.460999c-0.268524,-2.751404 -0.576935,-5.583771 -1.012512,-8.450989c-0.876801,-5.771698 -1.519501,-8.58606 -2.186646,-11.330658c-0.648743,-2.668854 -1.360901,-5.219055 -2.092499,-7.63501c-0.689575,-2.277191 -1.379791,-4.378601 -2.047516,-6.285004c-1.114624,-3.182343 -1.57901,-4.408966 -1.997314,-5.381317c-0.323456,-0.751892 -0.572998,-1.342194 -0.913513,-1.542023c-0.228973,-0.134369 -0.549622,0.056946 -0.778503,0.438019c-0.746582,1.242981 -1,2.251862 -1.410675,3.375977c-0.468903,1.283508 -0.960846,2.725555 -1.477478,4.311005c-0.557312,1.710388 -1.130493,3.540375 -1.702515,5.481018c-1.219269,4.136414 -1.799713,6.321289 -2.38266,8.538666c-0.582397,2.215302 -1.133026,4.400787 -1.644012,6.522003c-0.485992,2.017578 -0.927155,3.900879 -1.283997,5.621979c-0.578247,2.788849 -0.751038,3.806244 -0.787994,4.553345c-0.023315,0.471252 0.114655,0.71225 0.259491,0.59549c0.337311,-0.271942 0.615051,-0.967682 1.024506,-1.879486c1.175507,-2.617676 1.83139,-4.368195 2.56134,-6.356018c0.802124,-2.184326 1.601318,-4.55069 2.309998,-7.076996c0.73291,-2.612671 1.408081,-5.30658 1.769989,-8.066986c0.714417,-5.449036 0.513733,-8.150482 0.196014,-10.72934c-0.308136,-2.501221 -0.85025,-4.879486 -1.528503,-7.099487c-0.641327,-2.099152 -1.377991,-4.018219 -2.203491,-5.704498c-1.383514,-2.826141 -2.090424,-3.856384 -2.777344,-4.565338c-0.535034,-0.552216 -1.159454,-0.859497 -1.665009,-0.688507c-0.585327,0.197968 -1.106537,0.920685 -1.574982,1.876495c-1.316925,2.68692 -1.766388,4.619843 -2.418671,6.764008c-0.726501,2.388184 -1.470367,5.0047 -2.298004,7.796997c-0.873352,2.946533 -1.784698,6.018066 -2.838013,9.147003c-2.162262,6.423218 -3.453461,9.591461 -4.773315,12.716003c-1.296722,3.069824 -2.639923,6.016907 -3.972015,8.824493c-1.260834,2.65744 -2.479523,5.110596 -3.612,7.339508c-1.874054,3.688446 -2.591858,5.086456 -3.187988,6.161316c-0.434052,0.782623 -0.734802,1.425995 -1.012512,1.39502c-0.212646,-0.023712 -0.245605,-0.619659 -0.247498,-1.39502c-0.006042,-2.480713 0.126007,-4.179382 0.156006,-6.157318c0.033752,-2.22348 0.027344,-4.662781 -0.096008,-7.281006c-0.130585,-2.771667 -0.338074,-5.671234 -0.815979,-8.631012c-0.986969,-6.112427 -1.954956,-9.137299 -2.982666,-12.119995c-1.01886,-2.95697 -2.195251,-5.794556 -3.430511,-8.498993c-1.181152,-2.585999 -2.386047,-4.977448 -3.565491,-7.148987c-1.99234,-3.668213 -2.840546,-5.069061 -3.581329,-6.172028c-0.580048,-0.863617 -1.057892,-1.535522 -1.561523,-1.741486c-0.363403,-0.148621 -0.793915,0.08783 -1.066498,0.553497c-0.851868,1.455322 -1.036682,2.653961 -1.422668,3.958679c-0.435181,1.471008 -0.879028,3.096252 -1.36499,4.84198c-0.513977,1.846313 -1.04364,3.772858 -1.63501,5.742004c-1.206696,4.018158 -1.889923,5.999359 -2.585327,7.941345c-0.677277,1.891327 -1.367004,3.697449 -2.050507,5.399994c-0.63855,1.590576 -1.244232,3.040527 -1.8255,4.320007c-0.919983,2.025024 -1.267212,2.729584 -1.593323,3.17334c-0.196808,0.267822 -0.41214,0.295166 -0.47699,0.089996c-0.124542,-0.393951 -0.069855,-1.040527 -0.027008,-1.890015c0.11911,-2.361877 0.265076,-3.863647 0.378662,-5.552002c0.123505,-1.835663 0.242218,-3.783386 0.315002,-5.807983c0.074188,-2.063477 0.128021,-4.133453 0.045013,-6.167999c-0.156586,-3.837189 -0.448578,-5.569916 -0.794678,-7.145355c-0.317047,-1.443176 -0.713623,-2.727295 -1.166992,-3.832489c-0.39682,-0.967407 -0.787415,-1.786133 -1.257019,-2.347504c-0.62381,-0.745728 -1.016022,-0.778534 -1.198669,-0.583984c-0.271271,0.28894 -0.377106,0.902191 -0.523499,1.681488c-0.187408,0.997559 -0.345367,2.235382 -0.568481,3.706512c-0.559906,3.692017 -0.952637,5.912384 -1.401337,8.342651c-0.47879,2.593201 -1.00415,5.294098 -1.550995,8.054993c-0.549133,2.77243 -1.10257,5.503662 -1.641022,8.14502c-0.981354,4.813873 -1.410095,6.893433 -1.783997,8.735992c-0.325928,1.60614 -0.602783,2.978119 -0.824982,4.118988c-0.177216,0.909912 -0.337372,1.588104 -0.375,2.049011c-0.019745,0.241882 0.082794,0.036499 0.179993,-0.386658c0.142731,-0.621368 0.279694,-1.443146 0.382507,-2.45401c0.120667,-1.186523 0.203979,-2.550049 0.157501,-4.074005c-0.107178,-3.514587 -0.439209,-5.478271 -0.801331,-7.542664c-0.37616,-2.144531 -0.851044,-4.317688 -1.377014,-6.487488c-0.519623,-2.143646 -1.070892,-4.214233 -1.647003,-6.172516c-1.025055,-3.484222 -1.519989,-4.927216 -1.988007,-6.158661c-0.397125,-1.044952 -0.761902,-1.905182 -1.17749,-2.52301c-0.322693,-0.479706 -0.69278,-0.852509 -1.042511,-0.812988c-0.767944,0.086761 -1.065857,0.776215 -1.419983,1.394653c-0.434937,0.759521 -0.85907,1.717468 -1.350006,2.835022c-0.563263,1.282135 -1.172821,2.744598 -1.890015,4.36499c-1.668976,3.770874 -2.685883,5.892578 -3.783997,8.146667c-1.14621,2.352783 -2.348541,4.749786 -3.575989,7.154999c-1.215302,2.381409 -2.412415,4.69101 -3.575989,6.88501c-2.076019,3.914459 -2.967346,5.5513 -3.778687,6.934662c-0.678009,1.156006 -1.234863,2.092102 -1.811981,2.659485c-0.398041,0.391327 -0.881897,0.491943 -1.09201,0.184509c-0.807709,-1.181732 -0.551758,-2.527039 -0.626678,-3.980011c-0.088837,-1.723114 -0.124329,-3.696198 -0.197998,-5.891998c-0.080414,-2.39624 -0.167267,-4.970886 -0.377991,-7.691986c-0.450348,-5.815521 -0.902435,-8.84549 -1.397339,-11.912018c-0.495758,-3.071747 -1.072479,-6.091705 -1.682983,-9.020996c-0.584961,-2.806671 -1.181,-5.438263 -1.77301,-7.850983c-0.989197,-4.031372 -1.405762,-5.565186 -1.794678,-6.758667c-0.290802,-0.892365 -0.499084,-1.592712 -0.848999,-1.744507c-0.226593,-0.098297 -0.530975,0.264648 -0.759003,0.820496c-0.731171,1.782349 -0.992767,3.086304 -1.415985,4.557343c-0.47699,1.657928 -0.994141,3.485718 -1.575012,5.455505c-0.618774,2.098328 -1.278748,4.303833 -2.024994,6.580475c-1.555878,4.746704 -2.457642,7.143433 -3.381317,9.537354c-0.915802,2.373474 -1.857727,4.682251 -2.802002,6.902985c-0.901611,2.120392 -1.774353,4.10321 -2.622009,5.913025c-1.432709,3.058899 -2.032379,4.245636 -2.596008,5.158661c-0.432983,0.701447 -0.825745,1.252258 -1.219482,1.282501c-0.334839,0.025726 -0.669922,-0.44162 -0.90451,-1.102509c-0.736877,-2.07605 -0.889923,-3.616943 -1.226654,-5.374664c-0.382782,-1.998169 -0.790131,-4.218811 -1.285522,-6.627014c-0.531586,-2.584106 -1.118408,-5.320435 -1.870483,-8.156982c-1.589783,-5.996063 -2.660461,-9.047455 -3.778687,-12.110687c-1.113678,-3.050751 -2.302399,-6.008972 -3.517487,-8.836487c-1.152893,-2.6828 -2.273468,-5.156555 -3.382507,-7.351501c-1.785675,-3.534119 -2.49704,-4.781708 -3.195984,-5.548004c-0.468872,-0.514069 -1.03479,-0.637848 -1.359009,-0.287994c-0.494049,0.533142 -0.746002,1.607574 -1.088989,2.951996c-0.943085,3.696625 -1.40451,6.078033 -2.02002,8.73468c-0.673828,2.908417 -1.406799,6.021912 -2.203491,9.29248c-0.825684,3.389496 -1.683807,6.850739 -2.60849,10.327515c-1.827545,6.871582 -2.805481,10.155945 -3.776001,13.302673c-0.922729,2.99176 -1.837219,5.785645 -2.740509,8.348999c-0.819946,2.326813 -1.567657,4.385315 -2.33551,6.098999c-1.110199,2.477722 -1.549835,3.302002 -1.998657,3.374664c-0.293915,0.047577 -0.532867,-0.549622 -0.644989,-1.369507c-0.157593,-1.152222 -0.176514,-2.652832 -0.195007,-4.474487c-0.04657,-4.587799 -0.007477,-7.329376 -0.024017,-10.318665c-0.017639,-3.185394 -0.055359,-6.515198 -0.155975,-9.936005c-0.101837,-3.461975 -0.230927,-6.915192 -0.516022,-10.296021c-0.538086,-6.381165 -1.037537,-9.268738 -1.590668,-11.914642c-0.506348,-2.422119 -1.090515,-4.584656 -1.747498,-6.456024c-0.569977,-1.623566 -1.095306,-3.00238 -1.79248,-3.936005c-0.881927,-1.181 -1.50235,-1.163055 -1.800018,-0.806641c-0.434479,0.520233 -0.642792,1.475891 -0.907501,2.638489c-0.32016,1.406158 -0.593658,3.064484 -0.952484,4.933502c-0.83371,4.342468 -1.384521,6.7677 -1.997345,9.31601c-0.633087,2.632507 -1.316254,5.291962 -2.008484,7.937988c-0.677216,2.588654 -1.346222,5.067627 -1.963501,7.39801c-1.064026,4.016876 -1.465271,5.625214 -1.792023,6.953308c-0.260712,1.059631 -0.438477,1.870056 -0.619476,2.419525c-0.107666,0.326843 -0.245941,0.434998 -0.304504,0.304504c-0.345367,-0.769684 -0.286926,-1.512299 -0.412018,-2.364014c-0.146698,-0.998871 -0.302948,-2.130463 -0.470978,-3.377991c-0.181427,-1.347107 -0.369232,-2.778442 -0.561005,-4.278015c-0.401306,-3.138153 -0.597168,-4.744476 -0.794678,-6.345337c-0.193817,-1.570801 -0.379669,-3.086884 -0.561005,-4.522491c-0.168121,-1.331024 -0.318054,-2.53299 -0.470978,-3.577515c-0.223785,-1.528687 -0.214722,-2.064789 -0.412018,-2.169312c-0.076752,-0.04068 -0.189941,0.25946 -0.304504,0.725983c-0.167511,0.682129 -0.347473,1.59024 -0.619476,2.706024c-0.703308,2.885162 -1.217377,4.629181 -1.797333,6.547974c-0.622986,2.061157 -1.311188,4.217163 -2.041504,6.433502c-0.740234,2.246368 -1.496368,4.479645 -2.26651,6.658508c-1.441498,4.078217 -2.13147,5.894714 -2.782654,7.548004c-0.589905,1.497681 -1.14267,2.829254 -1.680023,3.980988c-0.465057,0.996765 -0.865082,1.84491 -1.319992,2.451019c-0.610962,0.814026 -0.991592,0.935455 -1.203995,0.797333c-0.273453,-0.177826 -0.413849,-0.674225 -0.538498,-1.290009c-0.158691,-0.784027 -0.246094,-1.758881 -0.313507,-2.910004c-0.166183,-2.83783 -0.173904,-4.523407 -0.205338,-6.347992c-0.033188,-1.926422 -0.051788,-3.915985 -0.064499,-5.929504c-0.012604,-1.998505 -0.017532,-3.942993 -0.019501,-5.794495c-0.003464,-3.268005 0.003479,-4.612701 -0.006668,-5.745331c-0.008224,-0.918732 -0.003128,-1.625427 -0.077988,-2.106018c-0.041794,-0.26828 -0.169174,-0.320099 -0.258011,-0.125977c-0.454529,0.993164 -0.545166,1.906342 -0.815994,2.989319c-0.323547,1.293793 -0.701843,2.790253 -1.175995,4.470001c-0.527115,1.867401 -1.135422,3.90863 -1.896011,6.089996c-1.692673,4.854553 -2.806091,7.443634 -3.977325,10.131989c-1.199997,2.754364 -2.473938,5.503418 -3.772507,8.215515c-1.268417,2.649139 -2.518997,5.176758 -3.727493,7.540497c-2.104675,4.116669 -2.988098,5.778992 -3.781342,7.138672c-0.639557,1.096252 -1.141129,1.968933 -1.699493,2.362488c-0.361313,0.254669 -0.816483,0.099396 -1.024506,-0.382477c-0.753784,-1.746063 -0.657669,-3.256195 -0.830658,-4.972015c-0.200775,-1.991425 -0.382294,-4.238281 -0.624008,-6.708008c-0.26149,-2.671692 -0.550644,-5.521545 -0.983994,-8.507996c-0.919952,-6.339996 -1.632935,-9.609619 -2.388,-12.906647c-0.754044,-3.292572 -1.586792,-6.514008 -2.440506,-9.627014c-0.815094,-2.972198 -1.625549,-5.744781 -2.395493,-8.277008c-1.273117,-4.187134 -1.757385,-5.759674 -2.20134,-6.953339c-0.320862,-0.862701 -0.59436,-1.528137 -0.923996,-1.540497c-0.315552,-0.011841 -0.603333,0.602722 -0.923996,1.384521c-0.983902,2.398743 -1.509872,4.063416 -2.213333,5.944c-0.784241,2.096527 -1.645416,4.372955 -2.570999,6.796478c-0.970291,2.540558 -1.97879,5.163055 -3.021011,7.831512c-2.093506,5.360107 -3.141281,7.979004 -4.171997,10.519989c-0.99054,2.441925 -1.945129,4.752655 -2.869492,6.898499c-0.848557,1.969849 -1.615524,3.737457 -2.374512,5.233521c-1.132767,2.232849 -1.552002,2.989502 -2.006653,3.166656c-0.274323,0.106903 -0.570724,-0.290283 -0.723007,-0.92099c-0.221512,-0.917389 -0.315399,-2.166748 -0.453003,-3.710999c-0.356079,-3.995819 -0.551895,-6.439423 -0.813324,-9.129333c-0.280792,-2.88916 -0.595306,-5.924805 -0.942001,-9.055511c-0.351868,-3.177338 -0.717239,-6.349213 -1.122009,-9.46051c-0.761887,-5.856354 -1.178009,-8.498688 -1.590668,-10.923981c-0.375793,-2.208588 -0.752213,-4.188324 -1.141495,-5.928009c-0.337418,-1.507935 -0.631226,-2.782715 -1.0065,-3.768005c-0.48111,-1.263123 -0.827621,-1.523193 -1.011993,-1.393341c-0.315552,0.222229 -0.447601,0.906494 -0.669006,1.765503c-0.287338,1.114807 -0.568893,2.505249 -0.938995,4.150513c-0.918381,4.082672 -1.520187,6.501556 -2.193344,9.125336c-0.712723,2.777985 -1.477097,5.647797 -2.263489,8.557495c-0.782959,2.896973 -1.559891,5.722351 -2.308502,8.422485c-1.332993,4.807892 -1.890717,6.814026 -2.38533,8.528015c-0.412659,1.429993 -0.743637,2.581421 -1.077011,3.4245c-0.22908,0.579315 -0.490631,0.959381 -0.626999,0.859497c-0.705505,-0.516815 -0.351257,-1.674042 -0.41066,-2.768005c-0.072021,-1.326385 -0.104553,-2.865234 -0.128998,-4.591492c-0.026779,-1.891083 -0.035202,-3.924347 -0.039001,-6.076508c-0.008057,-4.569336 -0.000992,-6.939484 -0.005341,-9.330658c-0.004333,-2.383179 -0.013,-4.729401 -0.039001,-7.009491c-0.024918,-2.185242 -0.052994,-4.247009 -0.128998,-6.15451c-0.129227,-3.242828 -0.231812,-4.527466 -0.412003,-5.558655c-0.139801,-0.800018 -0.298584,-1.448761 -0.6465,-1.641022c-0.280106,-0.154785 -0.738174,0.113495 -1.141495,0.609009c-1.279282,1.571716 -1.836716,2.900055 -2.591995,4.362671c-0.850281,1.646606 -1.72908,3.475159 -2.64151,5.445007c-0.958786,2.069946 -1.921982,4.223816 -2.866501,6.434998c-1.891388,4.427826 -2.749359,6.614166 -3.578659,8.735992c-0.79744,2.040314 -1.534927,3.990906 -2.221497,5.82901c-0.637222,1.705994 -1.206604,3.267639 -1.726501,4.658997c-0.82901,2.218628 -1.136475,3.01358 -1.398666,3.583984c-0.171722,0.373596 -0.322235,0.560791 -0.354004,0.507019c-0.111389,-0.188629 0.058105,-0.623962 0.186005,-1.203003c0.370667,-1.678101 0.665985,-2.750305 0.994659,-3.965332c0.362061,-1.33847 0.771683,-2.776276 1.236008,-4.290009c0.484589,-1.579773 1.003632,-3.201752 1.595993,-4.829987c1.189987,-3.270966 1.881882,-4.838684 2.582672,-6.348022c0.672409,-1.448212 1.356628,-2.79425 2.050491,-4.009491c0.629578,-1.102661 1.202927,-2.075623 1.8255,-2.794495c0.870285,-1.004913 1.357346,-1.159973 1.577332,-0.970673c0.288284,0.248077 0.303589,0.909973 0.243011,1.723511c-0.079346,1.065582 -0.338898,2.378754 -0.747009,3.928497c-1.029953,3.911133 -1.875977,6.212891 -2.783997,8.741333c-0.972687,2.708557 -2.054932,5.528168 -3.218994,8.413483c-1.179749,2.924194 -2.394043,5.82663 -3.669006,8.638519c-2.396225,5.284821 -3.604233,7.617218 -4.768005,9.722656c-1.053375,1.905701 -2.05954,3.569 -3.062988,4.930511c-0.852142,1.15625 -1.59024,2.166626 -2.432999,2.545502c-1.106445,0.497406 -1.716949,-0.097107 -2.001343,-0.793335c-0.373444,-0.914246 -0.501663,-2.168152 -0.586502,-3.64801c-0.098343,-1.715454 -0.078888,-3.659393 -0.001495,-5.808014c0.175095,-4.860962 0.388153,-7.531433 0.582672,-10.317322c0.199326,-2.854828 0.421188,-5.730865 0.647995,-8.583008c0.221268,-2.782532 0.443405,-5.448547 0.647995,-7.953003c0.354431,-4.33847 0.493088,-6.089905 0.59201,-7.552002c0.079926,-1.181305 0.139664,-2.09317 0.134995,-2.744995c-0.002884,-0.401917 -0.080765,-0.58075 -0.134995,-0.494995c-0.439682,0.695099 -0.408386,1.485687 -0.604004,2.384003c-0.238007,1.092896 -0.506104,2.381744 -0.823502,3.860992c-0.358368,1.670135 -0.760345,3.529297 -1.2285,5.571014c-1.064362,4.641876 -1.707031,7.220825 -2.38533,9.936005c-0.700882,2.805511 -1.428009,5.651001 -2.156998,8.492981c-0.716354,2.792694 -1.414917,5.487762 -2.067001,8.042999c-1.147644,4.49707 -1.609497,6.357239 -1.981339,7.942688c-0.306747,1.307922 -0.543793,2.344055 -0.660004,3.1185c-0.075531,0.503418 -0.022949,0.791443 0.059998,0.73349c0.745575,-0.520905 0.784088,-1.564575 1.192001,-2.56134c0.487076,-1.190186 1.023026,-2.557709 1.623001,-4.067993c0.647949,-1.631104 1.331802,-3.359558 2.072998,-5.14801c1.53096,-3.694122 2.351547,-5.531311 3.17868,-7.341309c0.809738,-1.771942 1.618698,-3.475922 2.414993,-5.094025c0.750839,-1.525726 1.4617,-2.93399 2.145004,-4.194c1.122253,-2.069427 1.571793,-2.83548 1.990662,-3.361328c0.28653,-0.359711 0.59726,-0.507874 0.718506,-0.340485c0.221085,0.305237 0.174347,0.980438 0.133499,1.864502c-0.121017,2.619202 -0.363068,4.357574 -0.587997,6.35199c-0.248352,2.202057 -0.538376,4.562073 -0.858002,7.033508c-0.328217,2.537933 -0.671982,5.09375 -1.03801,7.6185c-0.693008,4.78009 -1.049606,6.943146 -1.388,8.934662c-0.309204,1.819733 -0.607193,3.46225 -0.88649,4.925995c-0.245285,1.285492 -0.467178,2.388123 -0.661499,3.306c-0.270676,1.278473 -0.514832,1.690277 -0.384003,1.803986c0.022598,0.019653 0.122589,-0.194 0.295502,-0.547485c0.25444,-0.520172 0.59169,-1.206848 1.060501,-2.032501c1.21283,-2.136047 2.05368,-3.385132 2.982666,-4.756012c0.995041,-1.468353 2.068115,-2.983398 3.185989,-4.523987c1.124771,-1.55011 2.251663,-3.069489 3.366013,-4.523987c2.034317,-2.655273 2.943069,-3.783356 3.775986,-4.758667c0.726242,-0.850403 1.370178,-1.56308 1.983002,-2.071503c0.495056,-0.410706 0.96669,-0.749634 1.353012,-0.676514c0.694031,0.131348 0.863754,0.788574 1.011993,1.391998c0.181229,0.737732 0.261887,1.63501 0.322495,2.659515c0.067902,1.147614 0.088074,2.412933 0.097504,3.784485c0.020813,3.027954 0.005844,4.662659 0.007996,6.345337c0.002167,1.698669 0.006439,3.381378 0.019501,5.015991c0.012421,1.554718 0.024506,2.99765 0.064499,4.296021c0.062775,2.037994 0.087616,2.729462 0.208008,3.169312c0.064911,0.237183 0.228027,0.258759 0.352493,0.055511c0.221451,-0.361572 0.405243,-0.951752 0.667511,-1.699493c0.696136,-1.984711 1.111908,-3.210052 1.595993,-4.554688c0.520996,-1.447174 1.08075,-2.968353 1.673996,-4.537476c0.604019,-1.597626 1.218079,-3.196198 1.854004,-4.762512c1.208023,-2.975433 1.802261,-4.321838 2.386673,-5.545319c0.52861,-1.106659 1.025833,-2.073914 1.550995,-2.838013c0.431412,-0.627716 0.83989,-1.20694 1.281006,-1.217987c0.741089,-0.018555 0.992523,0.819061 1.213333,1.603973c0.280701,0.997803 0.477493,2.237762 0.713989,3.676514c0.268234,1.631836 0.533783,3.451569 0.894012,5.431488c0.806366,4.431976 1.375061,6.834869 1.995987,9.324005c0.633728,2.540436 1.325378,5.073547 2.047501,7.557007c0.69838,2.401825 1.389206,4.669891 2.092499,6.747009c1.177002,3.476196 1.679611,4.786072 2.20134,5.743988c0.384262,0.705505 0.827316,1.197784 1.227005,1.134003c0.459671,-0.073334 0.883133,-0.724457 1.317001,-1.56601c1.266571,-2.456696 1.844055,-4.201111 2.597321,-6.141327c0.829849,-2.137451 1.684387,-4.443604 2.544006,-6.876007c0.88475,-2.50351 1.754929,-5.044861 2.544006,-7.595978c1.511627,-4.887177 2.081284,-7.182098 2.585327,-9.325348c0.464844,-1.976593 0.834167,-3.787628 1.141495,-5.411987c0.268906,-1.421234 0.460815,-2.63382 0.6465,-3.612c0.232468,-1.22467 0.362411,-1.468018 0.412003,-1.405334c0.169907,0.214783 0.105774,0.751709 0.128998,1.43399c0.029327,0.861755 0.035263,1.885986 0.039001,3.053986c0.008636,2.696014 0.001068,4.186005 0.005341,5.736023c0.004349,1.579987 0.013062,3.160095 0.039001,4.709991c0.024948,1.490082 0.050873,2.891174 0.128998,4.170013c0.127213,2.082458 0.207428,2.845978 0.412003,3.35199c0.131607,0.3255 0.417343,0.42807 0.6465,0.227997c0.381714,-0.333282 0.716568,-1.027191 1.141495,-1.932007c1.19252,-2.539276 1.827087,-4.243164 2.587997,-6.146667c0.830246,-2.076965 1.693039,-4.289734 2.583008,-6.587982c0.904739,-2.336395 1.798569,-4.668701 2.672989,-6.947998c1.618484,-4.21875 2.325104,-6.075623 2.982666,-7.725342c0.576569,-1.446503 1.078064,-2.681244 1.573502,-3.660004c0.387451,-0.765442 0.684998,-1.487549 1.078506,-1.5c0.587387,-0.018555 0.690842,0.921814 0.815994,1.793335c0.161316,1.123291 0.248367,2.499695 0.355499,4.102509c0.12146,1.817169 0.231262,3.836151 0.400513,6.037476c0.376953,4.902832 0.669373,7.564178 1.005325,10.317352c0.342072,2.803284 0.733337,5.604462 1.177505,8.353485c0.42984,2.66037 0.866867,5.183655 1.402496,7.498505c0.906662,3.918396 1.410172,5.42337 2.00267,6.538666c0.45932,0.864624 1.039291,1.488007 1.63649,1.504517c0.624176,0.017242 1.323914,-0.56781 1.951508,-1.420502c1.779251,-2.417419 2.474838,-4.301117 3.394669,-6.339996c1.014923,-2.249664 2.027969,-4.705048 3.070496,-7.302002c1.079193,-2.688293 2.142792,-5.440399 3.205505,-8.201996c2.070114,-5.379517 3.037979,-7.920624 3.979996,-10.314667c0.881073,-2.239166 1.707199,-4.299896 2.501999,-6.150024c0.705643,-1.642609 1.309143,-3.069641 1.962006,-4.169983c0.8703,-1.466797 1.361908,-1.761139 1.610657,-1.59201c0.353897,0.240631 0.456955,0.985199 0.594009,1.886993c0.173767,1.143311 0.274414,2.531464 0.414001,4.137024c0.332245,3.821655 0.545929,6.005371 0.809326,8.325317c0.274536,2.418091 0.583908,4.889282 0.922501,7.371002c0.334839,2.454285 0.677582,4.837402 1.057495,7.101013c0.676437,4.030365 1.023239,5.713257 1.405334,7.143982c0.322784,1.208649 0.644379,2.209991 1.120499,2.880005c0.373886,0.526154 0.924881,0.856354 1.435501,0.720001c1.395386,-0.37262 2.016479,-1.417694 2.818665,-2.38266c0.944244,-1.135834 1.932831,-2.514282 3.037506,-4.066498c1.222656,-1.717987 2.5289,-3.61676 3.982513,-5.64151c3.218506,-4.483002 5.042206,-6.871063 6.961334,-9.324005c1.953339,-2.496674 3.94696,-4.962433 5.951996,-7.346985c1.934265,-2.300415 3.785217,-4.458099 5.59198,-6.357025c3.010284,-3.163879 4.260956,-4.284241 5.389343,-4.941315c0.865845,-0.504181 1.747589,-0.656372 2.35199,-0.285004c0.695618,0.427429 1.186829,1.436066 1.632019,2.684998c1.206146,3.383698 1.616272,5.643036 2.223999,8.119995c0.658264,2.682892 1.323975,5.520355 2.018982,8.445007c0.702301,2.955322 1.389771,5.884888 2.109009,8.714996c1.31369,5.169189 1.945343,7.387329 2.601349,9.312012c0.568634,1.668304 1.118835,3.076752 1.810486,4.097992c0.556641,0.821869 1.252228,1.461884 1.945496,1.39801c1.619781,-0.149231 2.363068,-1.425201 3.206665,-2.562683c0.987518,-1.331543 1.940857,-2.952301 2.951996,-4.751984c1.08905,-1.938385 2.173431,-4.02533 3.312012,-6.192017c2.352112,-4.476013 3.550018,-6.721069 4.774658,-8.911987c1.190735,-2.13031 2.361053,-4.152924 3.517517,-6.020996c1.065155,-1.720551 2.031525,-3.266083 3.022491,-4.490997c1.450806,-1.793335 2.12735,-2.26651 2.600006,-2.186676c0.419403,0.070862 0.704498,0.662537 0.877502,1.385986c0.219879,0.919464 0.295197,2.059937 0.382477,3.365997c0.203796,3.049194 0.280945,4.750549 0.421356,6.524017c0.143707,1.814911 0.312805,3.635254 0.52948,5.422485c0.209259,1.726196 0.42218,3.359497 0.754517,4.837524c0.552063,2.455109 0.923737,3.375214 1.41333,3.957306c0.393311,0.467621 0.97876,0.677307 1.540497,0.538513c0.68631,-0.169556 1.423309,-0.730988 2.215515,-1.486511c2.072052,-1.976135 3.138184,-3.416138 4.379974,-4.944c1.335022,-1.642578 2.699646,-3.393188 4.09201,-5.194489c1.399628,-1.810699 2.763733,-3.606293 4.09201,-5.329498c2.400269,-3.113953 3.422241,-4.438751 4.381317,-5.52533c0.809052,-0.916626 1.516724,-1.668793 2.235016,-1.978516c0.560974,-0.241913 1.219543,-0.110504 1.60498,0.406525c1.20285,1.613495 1.271271,3.232056 1.61734,4.944c0.390564,1.932129 0.714386,4.04834 1.048492,6.274475c0.342072,2.279205 0.647675,4.559662 1.00351,6.769501c0.645355,4.007751 0.994415,5.693665 1.410675,7.119995c0.352722,1.208618 0.724426,2.209564 1.252502,2.860504c0.421356,0.519379 1.026825,0.824768 1.567505,0.655518c1.446564,-0.45282 2.04422,-1.54892 2.794647,-2.559998c0.855377,-1.152466 1.690735,-2.501892 2.554504,-3.97052c0.909119,-1.545715 1.799164,-3.170319 2.689514,-4.8255c1.760162,-3.272125 2.572479,-4.849518 3.38266,-6.322662c0.753204,-1.369568 1.451752,-2.608398 2.156982,-3.643494c0.598602,-0.878601 1.088409,-1.710876 1.707001,-1.888489c0.805573,-0.231323 1.197266,0.573486 1.416016,1.401337c0.285034,1.078674 0.435944,2.436493 0.626984,4.007996c0.215149,1.769775 0.408539,3.71991 0.71701,5.807983c0.670197,4.536407 1.200104,6.911865 1.808014,9.309326c0.608826,2.401031 1.305573,4.742279 2.099976,6.966003c0.754578,2.112274 1.509766,4.071655 2.460022,5.706024c1.539795,2.648315 2.488739,3.475983 3.393311,3.755981c0.809326,0.250519 1.747009,-0.029602 2.542511,-0.649506c0.953552,-0.743073 1.825562,-1.933807 2.67749,-3.394501c2.087372,-3.578979 2.965118,-5.880219 3.989349,-8.315979c1.080658,-2.569946 2.12793,-5.252441 3.166504,-7.97702c1.032074,-2.707489 2.006317,-5.35849 2.941498,-7.886993c1.660248,-4.488892 2.340973,-6.359619 3.003998,-7.924011c0.551422,-1.301025 1.023132,-2.362366 1.617004,-3.001495c0.440857,-0.474457 1.061676,-0.652863 1.526978,-0.346497c1.457245,0.959473 1.886597,2.371368 2.618683,3.752014c0.84259,1.58905 1.699707,3.39679 2.645996,5.344482c1.00296,2.064331 2.031525,4.221771 3.186005,6.379517c2.325836,4.347015 3.6315,6.391266 4.982666,8.320007c1.30304,1.860046 2.650208,3.567413 4.060486,5.050476c1.315521,1.383392 2.613525,2.617737 4.015503,3.385498c2.38327,1.305176 3.703247,1.283813 4.805328,0.993347c1.137817,-0.299896 2.225128,-1.038635 3.262512,-1.983002c1.150269,-1.04715 2.24939,-2.379608 3.397491,-3.872986c2.595825,-3.376465 3.928802,-5.329041 5.390686,-7.326691c1.502686,-2.053406 3.025238,-4.123138 4.565979,-6.15448c1.502167,-1.980499 2.946625,-3.871307 4.386017,-5.569519c2.473114,-2.917755 3.55957,-4.016632 4.602661,-4.735992c0.856995,-0.591034 1.767487,-0.897552 2.553009,-0.694489c0.851044,0.220001 1.683075,0.990814 2.462982,2.050476c2.114746,2.873322 3.027191,5.02005 4.213348,7.328003c1.294373,2.518524 2.620544,5.216461 4.031982,7.996521c1.433777,2.824036 2.855957,5.64212 4.391998,8.311493c2.840118,4.935638 4.310059,6.990356 5.782684,8.713318c1.320465,1.544922 2.661835,2.80719 4.054504,3.621002c1.247284,0.728851 2.588074,1.187744 3.829498,1.011017c2.54422,-0.362183 3.69104,-1.58667 4.79599,-2.756012c1.206696,-1.277039 2.283752,-2.848083 3.312012,-4.567505c1.072784,-1.793854 2.050171,-3.711761 2.951996,-5.692505c1.785583,-3.921783 2.485657,-5.873932 3.208008,-7.715973c0.68103,-1.736603 1.298828,-3.354309 1.964966,-4.779022c0.591431,-1.264923 1.100525,-2.422821 1.875,-3.069c1.16449,-0.971649 2.097473,-0.689301 2.808044,-0.214661c0.849792,0.567596 1.627625,1.496307 2.441956,2.554504c0.887085,1.15271 1.732971,2.444153 2.622009,3.769501c1.791199,2.670319 2.675049,3.949646 3.58667,5.127991c0.863586,1.116211 1.71582,2.127869 2.583008,2.977509c0.784363,0.768494 1.525574,1.450775 2.312988,1.762512c1.251343,0.495453 1.940674,0.218109 2.374695,-0.210693c0.489075,-0.483246 0.786011,-1.282745 0.916504,-2.218475c0.152161,-1.090698 0.096863,-2.38208 -0.208496,-3.793518c-0.7276,-3.363007 -1.633545,-5.195862 -2.588013,-7.139984c-1.008179,-2.053497 -2.195007,-4.110748 -3.515991,-6.128998c-1.322083,-2.019897 -2.707825,-3.961548 -4.236023,-5.679016c-2.80188,-3.148834 -4.31897,-4.280731 -5.757324,-5.165314c-1.305542,-0.802917 -2.606628,-1.353241 -3.840027,-1.614014c-1.120056,-0.236816 -2.208252,-0.285278 -3.119995,0.006012c-1.634888,0.522308 -2.186096,1.264862 -2.602661,1.94931c-0.418152,0.687012 -0.6651,1.470123 -0.819,2.253021c-0.149414,0.76001 -0.202911,1.495361 -0.188995,2.162994c0.02182,1.047058 0.030853,1.448242 0.186676,1.540009c0.070618,0.041595 0.192108,-0.213898 0.294006,-0.640503c0.156097,-0.653564 0.302765,-1.568848 0.473969,-2.755524c0.47052,-3.261414 0.710876,-5.369965 0.993347,-7.746643c0.307556,-2.587616 0.619019,-5.328857 0.928528,-8.16452c0.313232,-2.869659 0.615479,-5.715332 0.883484,-8.479492c0.488586,-5.039612 0.656982,-7.21228 0.798645,-9.131989c0.123657,-1.675018 0.213135,-3.114868 0.296997,-4.326019c0.068665,-0.991486 0.090332,-1.778412 0.207031,-2.345978c0.119812,-0.582703 0.298218,-0.595337 0.422668,-0.414673c0.219727,0.319061 0.422119,0.852234 0.724487,1.531494c0.376099,0.844818 0.821106,1.860107 1.399475,3.01651c1.409851,2.818878 2.352661,4.422272 3.381348,6.145325c1.082275,1.812805 2.235657,3.652466 3.42749,5.484009c1.175049,1.805725 2.329529,3.535034 3.472534,5.123993c1.968811,2.736938 2.812195,3.77652 3.569336,4.544006c0.58075,0.588684 1.098511,1.030823 1.479004,0.957001c0.316528,-0.061401 0.492126,-0.603058 0.488953,-1.292999c-0.009949,-2.174286 -0.419373,-3.651611 -0.805298,-5.365356c-0.436401,-1.937622 -1.016724,-4.052704 -1.767029,-6.299988c-0.799377,-2.394318 -1.733826,-4.888916 -2.936951,-7.380005c-2.514954,-5.207214 -4.213501,-7.684509 -5.958679,-10.125336c-1.735474,-2.427246 -3.580933,-4.706726 -5.458496,-6.828003c-1.78717,-2.019135 -3.528809,-3.845581 -5.233521,-5.388c-2.796265,-2.530029 -3.975739,-3.337128 -4.970673,-3.783997c-0.746277,-0.335175 -1.446075,-0.396271 -1.837494,-0.078003c-0.418701,0.340454 -0.585144,1.066467 -0.622498,1.902008c-0.097443,2.179993 0.173401,3.502167 0.368011,4.932007c0.205536,1.510101 0.465485,3.05658 0.754486,4.603485c0.283203,1.515808 0.575531,2.959686 0.889496,4.288513c0.519226,2.197662 0.738312,2.998138 0.992004,3.538666c0.157501,0.335571 0.386078,0.420837 0.4935,0.214508c0.214844,-0.412598 0.268219,-1.1651 0.35849,-2.170502c0.259308,-2.887573 0.311737,-4.787476 0.397339,-6.93869c0.093536,-2.350464 0.166016,-4.846436 0.202515,-7.432495c0.036987,-2.620667 0.054504,-5.222504 -0.022522,-7.747498c-0.140625,-4.609161 -0.342773,-6.589722 -0.594666,-8.310669c-0.214722,-1.46698 -0.452271,-2.670654 -0.7995,-3.54599c-0.244812,-0.617157 -0.62677,-1.012604 -0.844482,-0.846008c-0.946472,0.724213 -0.675812,2.167511 -0.789337,3.567993c-0.136475,1.683624 -0.186646,3.62384 -0.199493,5.778015c-0.013916,2.333984 0.021942,4.812714 0.115479,7.39801c0.193695,5.353821 0.387665,8.047668 0.596008,10.707977c0.203369,2.596771 0.440979,5.094391 0.726013,7.456512c0.265717,2.201874 0.528778,4.212524 0.905975,5.971497c0.586914,2.736969 0.934265,3.672302 1.372009,4.165344c0.265747,0.299316 0.645386,0.213623 0.784515,-0.178497c0.223785,-0.630585 0.197723,-1.613708 0.019501,-2.833496c-0.482544,-3.302612 -1.219818,-5.303345 -1.992004,-7.526672c-0.837006,-2.410034 -1.826935,-4.920197 -2.902496,-7.494019c-1.090851,-2.610413 -2.227692,-5.187134 -3.397522,-7.673981c-2.162506,-4.597046 -3.196228,-6.5784 -4.166656,-8.324005c-0.852844,-1.534058 -1.631012,-2.833191 -2.415009,-3.814514c-0.627289,-0.785126 -1.226471,-1.47757 -1.785004,-1.429504c-0.969879,0.083496 -1.200714,1.181335 -1.41333,2.170685c-0.261383,1.21637 -0.388306,2.669464 -0.509979,4.300507c-0.133057,1.783661 -0.215729,3.694092 -0.330017,5.695496c-0.237488,4.159607 -0.401794,6.255066 -0.610657,8.317322c-0.202911,2.003479 -0.438416,3.914215 -0.726013,5.695496c-0.263702,1.633362 -0.508667,3.096832 -0.905975,4.300507c-0.567383,1.718964 -1.022827,2.209625 -1.40802,2.17334c-0.441254,-0.041565 -0.866913,-0.63739 -1.311005,-1.390503c-0.568695,-0.964417 -1.121094,-2.215729 -1.760986,-3.685486c-1.556152,-3.574371 -2.417206,-5.678864 -3.386658,-7.914673c-1.012299,-2.334656 -2.059509,-4.71106 -3.144012,-7.066498c-1.059814,-2.301819 -2.081757,-4.497406 -3.144012,-6.481506c-1.782623,-3.329681 -2.585297,-4.546417 -3.388,-5.330658c-0.601013,-0.587189 -1.293152,-0.861267 -1.780487,-0.604523c-0.589478,0.310547 -1.013977,1.199799 -1.375488,2.320496c-1.001221,3.103912 -1.229767,5.204926 -1.606689,7.513336c-0.407257,2.494171 -0.772491,5.121399 -1.121979,7.812012c-0.349152,2.68808 -0.66214,5.313812 -0.942017,7.812012c-0.487701,4.35321 -0.649414,6.096222 -0.806671,7.521332c-0.123199,1.116425 -0.173798,1.947235 -0.355499,2.4375c-0.085236,0.22995 -0.273315,0.151825 -0.400482,-0.217499c-0.523163,-1.519531 -0.687286,-2.732483 -1.007996,-4.14801c-0.366394,-1.617126 -0.766693,-3.403931 -1.216522,-5.321991c-0.473907,-2.02066 -0.970917,-4.109894 -1.531494,-6.222015c-1.11615,-4.205444 -1.742767,-6.213409 -2.389343,-8.125336c-0.613007,-1.812622 -1.239899,-3.489258 -1.912476,-4.985992c-0.604431,-1.345093 -1.15448,-2.539978 -1.867523,-3.365997c-1.01947,-1.181 -1.734039,-1.256256 -2.202667,-0.985321c-0.57486,0.332336 -1.023895,1.118408 -1.471497,2.080475c-0.538452,1.157318 -1.015045,2.573792 -1.516479,4.195496c-1.178223,3.810577 -1.749023,6.006805 -2.395996,8.320007c-0.669708,2.39444 -1.342743,4.823761 -2.025024,7.234497c-0.66449,2.347931 -1.296295,4.585876 -1.934998,6.649506c-1.072571,3.465424 -1.516785,4.781067 -2.015991,5.742676c-0.373688,0.719818 -0.830994,1.227112 -1.299011,1.212006c-0.529419,-0.017059 -1.114227,-0.570465 -1.748993,-1.308014c-1.813263,-2.106812 -2.786133,-3.659607 -4.001343,-5.334656c-1.333832,-1.838593 -2.754791,-3.805511 -4.270477,-5.836517c-1.552155,-2.079865 -3.12262,-4.165619 -4.765503,-6.151489c-3.107849,-3.756683 -4.649963,-5.360291 -6.171997,-6.714661c-1.38385,-1.231415 -2.746216,-2.241791 -4.125,-2.800507c-1.236145,-0.500916 -2.573883,-0.711395 -3.675018,-0.235504c-2.469299,1.067169 -3.294952,2.843567 -4.199982,4.545349c-1.004364,1.88855 -1.834167,4.049225 -2.625,6.335999c-0.810181,2.342773 -1.51004,4.724426 -2.175018,7.056c-1.218414,4.272095 -1.703583,6.118134 -2.212006,7.706665c-0.434021,1.356049 -0.815765,2.483032 -1.300476,3.278992c-0.362976,0.596069 -0.857849,1.008636 -1.255524,0.848999c-1.19632,-0.480255 -1.480164,-1.776154 -2.003998,-2.961334c-0.615692,-1.393005 -1.19812,-3.009796 -1.802979,-4.783508c-0.644073,-1.888763 -1.269226,-3.873444 -1.893005,-5.908478c-1.246399,-4.066284 -1.811584,-6.039612 -2.397339,-7.914673c-0.552246,-1.767792 -1.080994,-3.402283 -1.667999,-4.843506c-0.51886,-1.273926 -0.961151,-2.425018 -1.667999,-3.088501c-1.000305,-0.938934 -1.826691,-0.681274 -2.418671,-0.197327c-0.75415,0.616547 -1.433716,1.63324 -2.204987,2.827484c-0.885315,1.37085 -1.788391,2.960754 -2.835022,4.672516c-2.340057,3.827209 -3.709381,5.854218 -5.175995,7.918671c-1.491852,2.099976 -3.040009,4.158661 -4.613983,6.138c-1.517487,1.908295 -2.981659,3.689453 -4.434021,5.237976c-2.416107,2.576111 -3.456268,3.456116 -4.390656,3.965332c-0.733368,0.399658 -1.474487,0.518188 -2.02951,0.255005c-0.599884,-0.284454 -1.088013,-0.971252 -1.534485,-1.815002c-1.147034,-2.167755 -1.607635,-3.608643 -2.214661,-5.142639c-0.650085,-1.642853 -1.309143,-3.371063 -1.980011,-5.146515c-0.675812,-1.788544 -1.335114,-3.561584 -1.980011,-5.281494c-1.183777,-3.157074 -1.692719,-4.537567 -2.201324,-5.740021c-0.441895,-1.044739 -0.841339,-1.933472 -1.339508,-2.540985c-0.396729,-0.483795 -0.924377,-0.804382 -1.384491,-0.651001c-1.272949,0.424316 -1.750366,1.537781 -2.405334,2.570679c-0.759521,1.197815 -1.504883,2.597321 -2.293488,4.121979c-0.834717,1.61377 -1.660675,3.30719 -2.518524,5.022003c-1.700745,3.399658 -2.542023,5.012604 -3.375977,6.526672c-0.779175,1.414612 -1.519318,2.695343 -2.230499,3.805511c-0.612793,0.956543 -1.091095,1.790466 -1.645508,2.230499c-0.554565,0.440155 -0.805786,0.0961 -0.798676,-0.402679c0.01062,-0.74292 0.213409,-1.705444 0.464996,-2.869507c0.292938,-1.355255 0.672791,-2.870636 1.095001,-4.534485c0.93808,-3.696869 1.457672,-5.6828 1.972015,-7.725342c0.518005,-2.057129 1.023315,-4.093231 1.495483,-6.073486c0.448853,-1.882507 0.862885,-3.631012 1.180511,-5.218506c0.500977,-2.503815 0.677917,-3.383453 0.56134,-3.959991c-0.069,-0.341278 -0.429626,-0.429169 -0.846008,-0.196503c-0.659149,0.368317 -1.437195,1.10199 -2.466003,2.008484c-2.792755,2.460754 -4.555847,4.023926 -6.556,5.733337c-2.158478,1.844696 -4.439728,3.763824 -6.790497,5.716492c-2.357208,1.958038 -4.677643,3.869263 -6.925507,5.671509c-3.995483,3.2034 -5.675568,4.498566 -7.150665,5.541321c-1.229065,0.868835 -2.257111,1.552856 -3.152985,1.870514c-0.673035,0.238647 -1.334473,0.2323 -1.623016,-0.15451c-0.783264,-1.050079 -0.500824,-2.200745 -0.437317,-3.346649c0.07193,-1.297485 0.256592,-2.699188 0.47699,-4.165497c0.224731,-1.495178 0.488525,-2.970856 0.747009,-4.390503c0.45636,-2.506256 0.667175,-3.511139 0.759979,-4.341339c0.07135,-0.638428 0.102936,-1.171234 -0.131989,-1.351501c-0.214569,-0.164642 -0.683105,0.035553 -1.212006,0.403503c-1.697723,1.181152 -2.720245,2.226807 -3.970673,3.353333c-1.385498,1.248199 -2.847961,2.602509 -4.358978,4.014008c-1.526337,1.425812 -3.020996,2.837585 -4.449005,4.194c-2.512238,2.386261 -3.507568,3.366638 -4.360016,4.133331c-0.665283,0.598358 -1.161316,1.104279 -1.565979,1.130981c-0.240326,0.015869 -0.374084,-0.379578 -0.306,-0.938995c0.238617,-1.960297 0.729797,-3.325928 1.170654,-4.959991c0.497559,-1.844208 1.066132,-3.848907 1.677002,-5.976013c0.634338,-2.208923 1.29068,-4.454163 1.946991,-6.695984c1.260132,-4.304382 1.850494,-6.282166 2.360016,-8.115997c0.460022,-1.655579 0.853668,-3.115936 1.067993,-4.375519c0.172058,-1.011169 0.38623,-1.947601 -0.011993,-2.260498c-0.647125,-0.508484 -1.543335,0.385315 -2.402679,1.182678c-1.087494,1.009064 -2.275604,2.316956 -3.626984,3.807007c-1.494659,1.648041 -3.078766,3.456085 -4.796997,5.336975c-3.634888,3.979004 -5.569244,5.965698 -7.538666,7.90802c-1.932373,1.905823 -3.83844,3.699432 -5.706024,5.317505c-1.723846,1.49353 -3.289032,2.833649 -4.806,3.742493c-2.189758,1.311951 -3.147797,1.380981 -3.590668,0.988007c-0.474731,-0.421265 -0.527557,-1.359528 -0.457489,-2.417999c0.085175,-1.286713 0.396637,-2.758575 0.757507,-4.39801c0.812897,-3.692932 1.308167,-5.671783 1.749329,-7.712006c0.442535,-2.046478 0.856415,-4.063416 1.201508,-6.014984c0.324554,-1.83548 0.619446,-3.520782 0.706482,-5.025024c0.130951,-2.263 -0.020264,-3.083099 -0.422668,-3.361328c-0.351257,-0.242859 -0.987152,0.013702 -1.638,0.490509c-0.863953,0.632935 -1.802795,1.603882 -2.89798,2.785492c-2.729553,2.944977 -4.26091,4.77597 -5.956009,6.722687c-1.784668,2.049561 -3.613113,4.162659 -5.458496,6.283478c-1.817291,2.088531 -3.565338,4.101532 -5.233505,5.968506c-2.853088,3.193115 -3.989212,4.422211 -4.96933,5.337341c-0.748077,0.698456 -1.351593,1.243195 -1.818008,1.214996c-0.335068,-0.020264 -0.545441,-0.53656 -0.557999,-1.214996c-0.04007,-2.164246 0.31488,-3.638367 0.565338,-5.335999c0.276566,-1.874573 0.605591,-3.872406 0.951004,-5.949005c0.35054,-2.107391 0.710754,-4.194916 1.041,-6.218994c0.596191,-3.654022 0.836227,-5.194946 0.965332,-6.513336c0.104691,-1.069092 0.213928,-1.935638 -0.048004,-2.413513c-0.16127,-0.29422 -0.656021,-0.216766 -1.128006,0.241516c-1.733368,1.682983 -2.59285,3.332275 -3.771988,5.138672c-1.331238,2.039429 -2.722137,4.286621 -4.162506,6.661499c-1.473206,2.429016 -2.918793,4.864929 -4.297501,7.24649c-2.492264,4.305115 -3.487717,6.144409 -4.373337,7.706665c-0.740738,1.306671 -1.326019,2.375824 -1.912491,3.088501c-0.411835,0.500458 -0.895218,0.758606 -1.147507,0.523499c-0.942291,-0.878082 -0.803741,-2.217834 -1.024002,-3.542664c-0.255737,-1.538269 -0.469894,-3.253082 -0.703491,-5.084991c-0.242462,-1.901428 -0.466568,-3.826538 -0.748505,-5.714996c-0.522507,-3.499786 -0.825516,-5.014435 -1.214661,-6.310669c-0.33316,-1.109741 -0.698822,-2.048065 -1.266006,-2.578522c-0.465546,-0.435394 -1.189011,-0.550934 -1.806,-0.193481c-1.859467,1.077332 -2.588135,2.617371 -3.582672,4.145325c-1.118805,1.718872 -2.218384,3.650696 -3.3405,5.694c-1.146271,2.087311 -2.240845,4.190674 -3.295502,6.234009c-1.898926,3.679077 -2.676819,5.22226 -3.374664,6.514648c-0.572739,1.060699 -1.016327,1.895172 -1.43399,2.417999c-0.251419,0.314728 -0.504028,0.333466 -0.534012,0.078003c-0.15538,-1.324097 0.299896,-2.417114 0.580002,-3.743988c0.322037,-1.525543 0.712692,-3.193451 1.14151,-4.959015c0.441681,-1.818481 0.899841,-3.638031 1.366501,-5.408997c0.848434,-3.219788 1.240051,-4.568542 1.567993,-5.714661c0.264542,-0.92453 0.493164,-1.603241 0.565506,-2.042999c0.026443,-0.160706 -0.087662,-0.042511 -0.289505,0.386993c-0.848602,1.805786 -1.436905,3.236389 -2.181335,4.946686c-0.847427,1.94696 -1.768768,4.076416 -2.737503,6.332977c-0.998001,2.324738 -1.99791,4.66272 -2.962494,6.963013c-1.778183,4.240509 -2.515976,6.090088 -3.175995,7.717316c-0.570557,1.406647 -1.04248,2.594543 -1.486511,3.528015c-0.338913,0.712463 -0.580032,1.382294 -0.901489,1.368011c-0.520874,-0.023132 -0.524414,-0.946167 -0.616013,-1.772003c-0.115036,-1.037109 -0.171844,-2.267761 -0.232498,-3.658508c-0.066513,-1.525269 -0.114502,-3.159271 -0.1875,-4.873505c-0.151794,-3.564667 -0.258423,-5.359955 -0.414658,-7.118652c-0.150497,-1.694092 -0.332993,-3.290771 -0.626999,-4.737c-0.262787,-1.292694 -0.485519,-2.475433 -1.077011,-3.207001c-0.842346,-1.04184 -1.732407,-0.843262 -2.405334,-0.388c-0.860718,0.582306 -1.688797,1.585236 -2.600998,2.782501c-1.04158,1.367065 -2.098236,2.964539 -3.230988,4.717499c-2.501526,3.871124 -3.798477,5.977661 -5.168015,8.108002c-1.375107,2.139008 -2.741104,4.238464 -4.100998,6.237c-1.283585,1.886383 -2.46727,3.623505 -3.651001,5.066986c-1.811356,2.208801 -2.569229,2.8797 -3.198654,2.970673c-0.464951,0.0672 -0.890564,-0.371002 -1.129501,-0.996002c-0.312271,-0.816833 -0.449387,-1.899719 -0.634506,-3.156006c-0.443298,-3.008423 -0.686279,-4.720734 -1.021332,-6.507996c-0.342926,-1.829285 -0.728256,-3.647552 -1.177505,-5.398499c-0.425507,-1.658417 -0.825989,-3.190552 -1.402496,-4.453491c-0.860031,-1.884094 -1.479553,-2.393188 -1.996002,-2.373352c-0.531998,0.020447 -1.058441,0.558319 -1.539001,1.2435c-0.580414,0.827545 -1.093002,1.889709 -1.628998,3.088501c-1.208893,2.703796 -1.771347,4.202789 -2.388,5.716003c-0.615677,1.510803 -1.212509,2.986023 -1.795502,4.382996c-0.538712,1.290863 -1.009033,2.44696 -1.480499,3.393005c-0.624542,1.253174 -0.912201,1.494171 -0.998657,1.386658c-0.186798,-0.2323 -0.064453,-0.798279 0,-1.487976c0.07962,-0.852081 0.218643,-1.835114 0.360001,-2.928009c0.311035,-2.404785 0.457687,-3.664673 0.582657,-4.925323c0.121872,-1.229401 0.221375,-2.399414 0.286499,-3.480011c0.057831,-0.959534 0.130325,-1.773682 0.061508,-2.399994c-0.06691,-0.609009 -0.26236,-0.527954 -0.395996,-0.196014c-0.212524,0.527893 -0.39357,1.265717 -0.603012,2.158508c-0.239975,1.02301 -0.474777,2.156647 -0.692993,3.373505c-0.458954,2.559296 -0.630219,3.858215 -0.789337,5.126648c-0.151825,1.210327 -0.271515,2.33783 -0.350998,3.354004c-0.06842,0.874695 -0.176483,1.591614 -0.080994,2.094025c0.064453,0.339111 0.253067,0.092987 0.395996,-0.38269c0.199997,-0.665619 0.39473,-1.496979 0.622498,-2.440491c0.245697,-1.017792 0.487854,-2.072998 0.757507,-3.115509c0.494156,-1.9104 0.739929,-2.693451 0.979996,-3.32132c0.180847,-0.472992 0.323883,-0.872742 0.449997,-0.834015c0.138275,0.04245 0.036545,0.5177 -0.089996,1.145996c-0.426697,2.11853 -0.888443,3.601593 -1.388,5.349335c-0.557327,1.94986 -1.182663,4.037354 -1.834503,6.213013l-0.66684,2.205658l-0.662827,2.179688l-0.639832,2.097656" id="svg_36" stroke-linecap="null" stroke-linejoin="null" stroke-dasharray="null" stroke-width="5" stroke="#000000" fill="none"/>
 </g>
</svg>